<svg xmlns="http://www.w3.org/2000/svg" viewBox="0 0 88 88" fill="none" role="img" aria-hidden="true">
  <defs>
    <linearGradient id="cb-bg" x1="14" y1="8" x2="74" y2="80" gradientUnits="userSpaceOnUse">
      <stop offset="0%" stop-color="#FFD98A"/>
      <stop offset="50%" stop-color="#FFB347"/>
      <stop offset="100%" stop-color="#F08A24"/>
    </linearGradient>
    <linearGradient id="cb-depth" x1="14" y1="72" x2="74" y2="80" gradientUnits="userSpaceOnUse">
      <stop offset="0%" stop-color="#C86E12"/>
      <stop offset="100%" stop-color="#9A520E"/>
    </linearGradient>
    <linearGradient id="cb-folder" x1="26" y1="30" x2="64" y2="66" gradientUnits="userSpaceOnUse">
      <stop offset="0%" stop-color="#FFFFFF" stop-opacity="0.98"/>
      <stop offset="100%" stop-color="#FFE8C2" stop-opacity="0.9"/>
    </linearGradient>
    <linearGradient id="cb-shine" x1="20" y1="14" x2="52" y2="44" gradientUnits="userSpaceOnUse">
      <stop offset="0%" stop-color="#FFFFFF" stop-opacity="0.78"/>
      <stop offset="100%" stop-color="#FFFFFF" stop-opacity="0"/>
    </linearGradient>
    <filter id="cb-shadow" x="-20%" y="-20%" width="140%" height="150%">
      <feDropShadow dx="0" dy="6" stdDeviation="6" flood-color="#E07A18" flood-opacity="0.34"/>
    </filter>
  </defs>
  <ellipse cx="44" cy="78" rx="28" ry="6" fill="#E07A18" opacity="0.16"/>
  <g filter="url(#cb-shadow)">
    <rect x="17" y="15" width="60" height="60" rx="22" fill="url(#cb-depth)"/>
    <rect x="14" y="12" width="60" height="60" rx="22" fill="url(#cb-bg)"/>
    <path d="M14 58c0 8 9.4 14 30 14s30-6 30-14" fill="#C86E12" opacity="0.32"/>
    <ellipse cx="30" cy="26" rx="22" ry="14" fill="url(#cb-shine)"/>
    <path d="M26 36h10a4 4 0 0 1 4 4v2H26a4 4 0 0 1-4-4v-2a4 4 0 0 1 4-4z" fill="#FFF3DC" opacity="0.95"/>
    <path d="M22 42h40a4 4 0 0 1 4 4v16a4 4 0 0 1-4 4H22a4 4 0 0 1-4-4V46a4 4 0 0 1 4-4z" fill="url(#cb-folder)"/>
    <rect x="30" y="50" width="14" height="3" rx="1.5" fill="#FFB347" opacity="0.55"/>
    <rect x="30" y="57" width="22" height="3" rx="1.5" fill="#FFB347" opacity="0.38"/>
    <circle cx="56" cy="54" r="8" fill="#FF9F2E" opacity="0.85"/>
    <path d="M53 54h6M56 51v6" stroke="#fff" stroke-width="1.8" stroke-linecap="round"/>
  </g>
</svg>
