<svg xmlns="http://www.w3.org/2000/svg" viewBox="0 0 88 88" fill="none" role="img" aria-hidden="true">
  <defs>
    <filter id="fm-shadow" x="-30%" y="-20%" width="160%" height="160%">
      <feDropShadow dx="0" dy="4" stdDeviation="4" flood-color="#6B4FE0" flood-opacity="0.28"/>
    </filter>
  </defs>
  <ellipse cx="44" cy="74" rx="24" ry="5" fill="#6B4FE0" opacity="0.14"/>
  <g filter="url(#fm-shadow)" transform="translate(44 46)">
    <g transform="translate(-34 -8)">
      <path d="M8 36 L48 56 L48 36 L8 16 Z" fill="#E1D5FF"/>
      <path d="M8 16 L48 36 L48 30 L8 10 Z" fill="#CE93D8"/>
      <path d="M4 30 L44 50 L44 30 L4 10 Z" fill="#D1C4E9"/>
      <path d="M4 10 L44 30 L44 24 L4 4 Z" fill="#B39DDB"/>
      <path d="M0 24 L40 44 L40 24 L0 4 Z" fill="#9B7BFF"/>
      <path d="M0 4 L40 24 L40 18 L0 -2 Z" fill="#6B4FE0"/>
      <path d="M4 10h18a3 3 0 0 1 3 3v8a3 3 0 0 1-3 3H12l-4 5v-5H4a3 3 0 0 1-3-3V13a3 3 0 0 1 3-3z" fill="#F3E5F5" opacity="0.95"/>
      <circle cx="10" cy="16" r="1.2" fill="#7E57C2"/>
      <circle cx="14" cy="16" r="1.2" fill="#7E57C2"/>
      <circle cx="18" cy="16" r="1.2" fill="#7E57C2"/>
      <path d="M16 22h14a2.5 2.5 0 0 1 2.5 2.5v6a2.5 2.5 0 0 1-2.5 2.5h-5l-3.5 4v-4H16a2.5 2.5 0 0 1-2.5-2.5v-6A2.5 2.5 0 0 1 16 22z" fill="#fff" opacity="0.72"/>
      <circle cx="21" cy="27" r="1" fill="#9575CD"/>
      <circle cx="25" cy="27" r="1" fill="#9575CD"/>
      <circle cx="29" cy="27" r="1" fill="#9575CD"/>
    </g>
  </g>
</svg>
