<svg xmlns="http://www.w3.org/2000/svg" viewBox="0 0 88 88" fill="none" role="img" aria-hidden="true">
  <defs>
    <filter id="qa-shadow" x="-30%" y="-20%" width="160%" height="160%">
      <feDropShadow dx="0" dy="4" stdDeviation="4" flood-color="#0E9B8A" flood-opacity="0.28"/>
    </filter>
  </defs>
  <ellipse cx="44" cy="74" rx="24" ry="5" fill="#0E9B8A" opacity="0.14"/>
  <g filter="url(#qa-shadow)" transform="translate(44 46)">
    <g transform="translate(-34 -8)">
      <path d="M8 36 L48 56 L48 36 L8 16 Z" fill="#B2DFDB"/>
      <path d="M8 16 L48 36 L48 30 L8 10 Z" fill="#80CBC4"/>
      <path d="M4 30 L44 50 L44 30 L4 10 Z" fill="#80DEEA"/>
      <path d="M4 10 L44 30 L44 24 L4 4 Z" fill="#4DD0E1"/>
      <path d="M0 24 L40 44 L40 24 L0 4 Z" fill="#2EC4B6"/>
      <path d="M0 4 L40 24 L40 18 L0 -2 Z" fill="#0E9B8A"/>
      <circle cx="20" cy="18" r="11" fill="#00897B" opacity="0.25"/>
      <path d="M14 18l5 5 10-12" stroke="#fff" stroke-width="3" stroke-linecap="round" stroke-linejoin="round"/>
    </g>
  </g>
</svg>
