<svg xmlns="http://www.w3.org/2000/svg" viewBox="0 0 88 88" fill="none" role="img" aria-hidden="true">
  <defs>
    <linearGradient id="fm-bg" x1="12" y1="10" x2="76" y2="78" gradientUnits="userSpaceOnUse">
      <stop offset="0%" stop-color="#C9B5FF"/>
      <stop offset="50%" stop-color="#9B7BFF"/>
      <stop offset="100%" stop-color="#6B4FE0"/>
    </linearGradient>
    <linearGradient id="fm-depth" x1="14" y1="72" x2="74" y2="80" gradientUnits="userSpaceOnUse">
      <stop offset="0%" stop-color="#5436B8"/>
      <stop offset="100%" stop-color="#3D2788"/>
    </linearGradient>
    <linearGradient id="fm-bubble" x1="24" y1="28" x2="58" y2="58" gradientUnits="userSpaceOnUse">
      <stop offset="0%" stop-color="#FFFFFF" stop-opacity="0.98"/>
      <stop offset="100%" stop-color="#E8DEFF" stop-opacity="0.88"/>
    </linearGradient>
    <filter id="fm-shadow" x="-20%" y="-20%" width="140%" height="150%">
      <feDropShadow dx="0" dy="6" stdDeviation="6" flood-color="#6B4FE0" flood-opacity="0.34"/>
    </filter>
  </defs>
  <ellipse cx="44" cy="78" rx="28" ry="6" fill="#6B4FE0" opacity="0.16"/>
  <g filter="url(#fm-shadow)">
    <rect x="17" y="15" width="60" height="60" rx="22" fill="url(#fm-depth)"/>
    <rect x="14" y="12" width="60" height="60" rx="22" fill="url(#fm-bg)"/>
    <path d="M14 58c0 8 9.4 14 30 14s30-6 30-14" fill="#5436B8" opacity="0.32"/>
    <path d="M24 34h30a5 5 0 0 1 5 5v12a5 5 0 0 1-5 5H34l-6 7v-7h-4a5 5 0 0 1-5-5V39a5 5 0 0 1 5-5z" fill="url(#fm-bubble)"/>
    <circle cx="31" cy="43" r="2" fill="#9B7BFF"/>
    <circle cx="39" cy="43" r="2" fill="#9B7BFF"/>
    <circle cx="47" cy="43" r="2" fill="#9B7BFF"/>
    <path d="M38 52h22a4 4 0 0 1 4 4v9a4 4 0 0 1-4 4h-8l-5 6v-6h-9a4 4 0 0 1-4-4V56a4 4 0 0 1 4-4z" fill="#FFFFFF" opacity="0.72"/>
    <circle cx="46" cy="60" r="1.6" fill="#B39BFF"/>
    <circle cx="52" cy="60" r="1.6" fill="#B39BFF"/>
    <circle cx="58" cy="60" r="1.6" fill="#B39BFF"/>
  </g>
</svg>
