<svg xmlns="http://www.w3.org/2000/svg" viewBox="0 0 88 88" fill="none" role="img" aria-hidden="true">
  <defs>
    <filter id="cb-shadow" x="-30%" y="-20%" width="160%" height="160%">
      <feDropShadow dx="0" dy="4" stdDeviation="4" flood-color="#E07A18" flood-opacity="0.28"/>
    </filter>
  </defs>
  <ellipse cx="44" cy="74" rx="24" ry="5" fill="#E07A18" opacity="0.14"/>
  <g filter="url(#cb-shadow)" transform="translate(44 46)">
    <g transform="translate(-34 -8)">
      <path d="M8 36 L48 56 L48 36 L8 16 Z" fill="#FFE0B2"/>
      <path d="M8 16 L48 36 L48 30 L8 10 Z" fill="#FFCC80"/>
      <path d="M4 30 L44 50 L44 30 L4 10 Z" fill="#FFD180"/>
      <path d="M4 10 L44 30 L44 24 L4 4 Z" fill="#FFB74D"/>
      <path d="M0 24 L40 44 L40 24 L0 4 Z" fill="#FFB347"/>
      <path d="M0 4 L40 24 L40 18 L0 -2 Z" fill="#F08A24"/>
      <path d="M8 12h10a3 3 0 0 1 3 3v1H8a3 3 0 0 1-3-3v-1a3 3 0 0 1 3-3z" fill="#FFF3E0" opacity="0.9"/>
      <path d="M6 16h24a3 3 0 0 1 3 3v14a3 3 0 0 1-3 3H6a3 3 0 0 1-3-3V19a3 3 0 0 1 3-3z" fill="#FFF8E1" opacity="0.95"/>
      <rect x="10" y="22" width="10" height="2" rx="1" fill="#F08A24" opacity="0.45"/>
      <rect x="10" y="27" width="14" height="2" rx="1" fill="#F08A24" opacity="0.35"/>
      <circle cx="28" cy="24" r="5" fill="#FF9800" opacity="0.85"/>
      <path d="M26 24h4M28 22v4" stroke="#fff" stroke-width="1.5" stroke-linecap="round"/>
    </g>
  </g>
</svg>
