<svg xmlns="http://www.w3.org/2000/svg" viewBox="0 0 88 88" fill="none" role="img" aria-hidden="true">
  <defs>
    <linearGradient id="qa-bg" x1="10" y1="10" x2="78" y2="78" gradientUnits="userSpaceOnUse">
      <stop offset="0%" stop-color="#7CF0C8"/>
      <stop offset="50%" stop-color="#2EC4B6"/>
      <stop offset="100%" stop-color="#0E9B8A"/>
    </linearGradient>
    <linearGradient id="qa-depth" x1="14" y1="72" x2="74" y2="80" gradientUnits="userSpaceOnUse">
      <stop offset="0%" stop-color="#0A7A6D"/>
      <stop offset="100%" stop-color="#065A50"/>
    </linearGradient>
    <linearGradient id="qa-ring" x1="24" y1="20" x2="64" y2="68" gradientUnits="userSpaceOnUse">
      <stop offset="0%" stop-color="#FFFFFF" stop-opacity="0.95"/>
      <stop offset="100%" stop-color="#B8F5E8" stop-opacity="0.75"/>
    </linearGradient>
    <filter id="qa-shadow" x="-20%" y="-20%" width="140%" height="150%">
      <feDropShadow dx="0" dy="6" stdDeviation="6" flood-color="#0E9B8A" flood-opacity="0.32"/>
    </filter>
  </defs>
  <ellipse cx="44" cy="78" rx="28" ry="6" fill="#0E9B8A" opacity="0.16"/>
  <g filter="url(#qa-shadow)">
    <rect x="17" y="15" width="60" height="60" rx="22" fill="url(#qa-depth)"/>
    <rect x="14" y="12" width="60" height="60" rx="22" fill="url(#qa-bg)"/>
    <path d="M14 58c0 8 9.4 14 30 14s30-6 30-14" fill="#0A7A6D" opacity="0.32"/>
    <circle cx="44" cy="44" r="22" fill="url(#qa-ring)" opacity="0.92"/>
    <circle cx="44" cy="44" r="22" stroke="#FFFFFF" stroke-width="2" opacity="0.45"/>
    <path d="M34 44l7 7 14-16" stroke="#0E9B8A" stroke-width="4" stroke-linecap="round" stroke-linejoin="round"/>
    <path d="M58 28l4 2-2 4" stroke="#FFFFFF" stroke-width="1.5" stroke-linecap="round" opacity="0.7"/>
  </g>
</svg>
