<svg xmlns="http://www.w3.org/2000/svg" viewBox="0 0 88 88" fill="none" role="img" aria-hidden="true">
  <defs>
    <linearGradient id="tc-bg" x1="12" y1="8" x2="76" y2="80" gradientUnits="userSpaceOnUse">
      <stop offset="0%" stop-color="#7EC8FF"/>
      <stop offset="45%" stop-color="#3A8DFF"/>
      <stop offset="100%" stop-color="#1E5FD8"/>
    </linearGradient>
    <linearGradient id="tc-doc" x1="28" y1="24" x2="62" y2="68" gradientUnits="userSpaceOnUse">
      <stop offset="0%" stop-color="#FFFFFF" stop-opacity="0.98"/>
      <stop offset="100%" stop-color="#D8ECFF" stop-opacity="0.92"/>
    </linearGradient>
    <linearGradient id="tc-shine" x1="20" y1="14" x2="52" y2="46" gradientUnits="userSpaceOnUse">
      <stop offset="0%" stop-color="#FFFFFF" stop-opacity="0.75"/>
      <stop offset="100%" stop-color="#FFFFFF" stop-opacity="0"/>
    </linearGradient>
    <filter id="tc-shadow" x="-20%" y="-20%" width="140%" height="150%">
      <feDropShadow dx="0" dy="6" stdDeviation="6" flood-color="#1A5FD8" flood-opacity="0.35"/>
    </filter>
  </defs>
  <g filter="url(#tc-shadow)">
    <rect x="14" y="12" width="60" height="60" rx="22" fill="url(#tc-bg)"/>
    <path d="M30 30h24a4 4 0 0 1 4 4v30a4 4 0 0 1-4 4H30a4 4 0 0 1-4-4V34a4 4 0 0 1 4-4z" fill="url(#tc-doc)" opacity="0.95"/>
    <path d="M50 30v8a3 3 0 0 0 3 3h7" stroke="#8EC5FF" stroke-width="1.5" fill="none" opacity="0.8"/>
    <rect x="32" y="42" width="18" height="3" rx="1.5" fill="#5AA8FF" opacity="0.55"/>
    <rect x="32" y="49" width="24" height="3" rx="1.5" fill="#5AA8FF" opacity="0.4"/>
    <rect x="32" y="56" width="20" height="3" rx="1.5" fill="#5AA8FF" opacity="0.3"/>
    <circle cx="58" cy="58" r="10" fill="#2F8FFF" opacity="0.9"/>
    <path d="M54 58l3 3 6-7" stroke="#fff" stroke-width="2.2" stroke-linecap="round" stroke-linejoin="round"/>
  </g>
</svg>
