<svg xmlns="http://www.w3.org/2000/svg" viewBox="0 0 88 88" fill="none" role="img" aria-hidden="true">
  <defs>
    <filter id="tc-shadow" x="-30%" y="-20%" width="160%" height="160%">
      <feDropShadow dx="0" dy="4" stdDeviation="4" flood-color="#1565C0" flood-opacity="0.28"/>
    </filter>
  </defs>
  <ellipse cx="44" cy="74" rx="24" ry="5" fill="#1565C0" opacity="0.14"/>
  <g filter="url(#tc-shadow)" transform="translate(44 46)">
    <g transform="translate(-34 -8)">
      <path d="M8 36 L48 56 L48 36 L8 16 Z" fill="#FFF3B0"/>
      <path d="M8 16 L48 36 L48 30 L8 10 Z" fill="#FFE082"/>
      <path d="M4 30 L44 50 L44 30 L4 10 Z" fill="#BBDEFB"/>
      <path d="M4 10 L44 30 L44 24 L4 4 Z" fill="#90CAF9"/>
      <path d="M0 24 L40 44 L40 24 L0 4 Z" fill="#2196F3"/>
      <path d="M0 4 L40 24 L40 18 L0 -2 Z" fill="#1976D2"/>
      <rect x="10" y="10" width="18" height="3" rx="1.5" fill="#1565C0" opacity="0.35"/>
      <rect x="10" y="16" width="22" height="3" rx="1.5" fill="#1565C0" opacity="0.28"/>
      <rect x="10" y="22" width="16" height="3" rx="1.5" fill="#1565C0" opacity="0.22"/>
      <circle cx="32" cy="28" r="7" fill="#1565C0" opacity="0.85"/>
      <path d="M29 28l2.5 2.5 5-6" stroke="#fff" stroke-width="1.8" stroke-linecap="round" stroke-linejoin="round"/>
    </g>
  </g>
</svg>
