<svg xmlns="http://www.w3.org/2000/svg" viewBox="0 0 512 512" fill="none">
  <defs>
    <linearGradient id="bg" x1="64" y1="32" x2="448" y2="480" gradientUnits="userSpaceOnUse">
      <stop offset="0%" stop-color="#10243F"/>
      <stop offset="55%" stop-color="#0B1730"/>
      <stop offset="100%" stop-color="#060D1C"/>
    </linearGradient>
    <linearGradient id="film" x1="96" y1="120" x2="416" y2="360" gradientUnits="userSpaceOnUse">
      <stop offset="0%" stop-color="#D9E7F7" stop-opacity="0.18"/>
      <stop offset="100%" stop-color="#7FA6D4" stop-opacity="0.05"/>
    </linearGradient>
    <linearGradient id="pipe" x1="156" y1="156" x2="356" y2="356" gradientUnits="userSpaceOnUse">
      <stop offset="0%" stop-color="#F4F8FF"/>
      <stop offset="45%" stop-color="#B7CCE8"/>
      <stop offset="100%" stop-color="#6E88AD"/>
    </linearGradient>
    <linearGradient id="weld" x1="236" y1="120" x2="276" y2="392" gradientUnits="userSpaceOnUse">
      <stop offset="0%" stop-color="#FFFFFF" stop-opacity="0.95"/>
      <stop offset="50%" stop-color="#D7E8FF" stop-opacity="0.88"/>
      <stop offset="100%" stop-color="#9CB5D8" stop-opacity="0.82"/>
    </linearGradient>
    <linearGradient id="ruler" x1="108" y1="404" x2="404" y2="452" gradientUnits="userSpaceOnUse">
      <stop offset="0%" stop-color="#3A8DFF"/>
      <stop offset="100%" stop-color="#2EC4B6"/>
    </linearGradient>
    <radialGradient id="glow" cx="0" cy="0" r="1" gradientUnits="userSpaceOnUse" gradientTransform="translate(256 250) rotate(90) scale(180)">
      <stop stop-color="#3A8DFF" stop-opacity="0.28"/>
      <stop offset="1" stop-color="#3A8DFF" stop-opacity="0"/>
    </radialGradient>
    <filter id="soft" x="-20%" y="-20%" width="140%" height="140%">
      <feGaussianBlur stdDeviation="8" result="blur"/>
      <feMerge>
        <feMergeNode in="blur"/>
        <feMergeNode in="SourceGraphic"/>
      </feMerge>
    </filter>
  </defs>

  <rect width="512" height="512" rx="112" fill="url(#bg)"/>
  <rect x="24" y="24" width="464" height="464" rx="96" stroke="#3A8DFF" stroke-opacity="0.22" stroke-width="2"/>
  <circle cx="256" cy="248" r="180" fill="url(#glow)"/>

  <rect x="88" y="108" width="336" height="248" rx="28" fill="url(#film)" stroke="#8EB4E8" stroke-opacity="0.18" stroke-width="2"/>

  <g opacity="0.08">
    <rect x="96" y="132" width="320" height="3" fill="#FFFFFF"/>
    <rect x="96" y="156" width="320" height="2" fill="#FFFFFF"/>
    <rect x="96" y="180" width="320" height="2" fill="#FFFFFF"/>
    <rect x="96" y="204" width="320" height="2" fill="#FFFFFF"/>
    <rect x="96" y="228" width="320" height="2" fill="#FFFFFF"/>
    <rect x="96" y="252" width="320" height="2" fill="#FFFFFF"/>
    <rect x="96" y="276" width="320" height="2" fill="#FFFFFF"/>
    <rect x="96" y="300" width="320" height="2" fill="#FFFFFF"/>
    <rect x="96" y="324" width="320" height="2" fill="#FFFFFF"/>
  </g>

  <ellipse cx="256" cy="232" rx="118" ry="88" fill="none" stroke="url(#pipe)" stroke-width="18" opacity="0.95"/>
  <ellipse cx="256" cy="232" rx="82" ry="58" fill="#081222" opacity="0.92"/>

  <rect x="238" y="128" width="36" height="208" rx="8" fill="url(#weld)" opacity="0.92"/>
  <rect x="246" y="136" width="20" height="192" rx="4" fill="#FFFFFF" opacity="0.35"/>

  <circle cx="214" cy="206" r="7" fill="#0A1224" opacity="0.85"/>
  <circle cx="292" cy="248" r="5" fill="#0A1224" opacity="0.8"/>
  <circle cx="268" cy="286" r="4" fill="#0A1224" opacity="0.75"/>
  <ellipse cx="302" cy="198" rx="9" ry="4" fill="#0A1224" opacity="0.7"/>

  <rect x="104" y="388" width="304" height="56" rx="16" fill="#0E1B31" stroke="url(#ruler)" stroke-width="2"/>
  <rect x="120" y="404" width="272" height="24" rx="8" fill="#142742"/>

  <g stroke="#E8F3FF" stroke-width="3" stroke-linecap="round" opacity="0.95">
    <line x1="136" y1="404" x2="136" y2="424"/>
    <line x1="176" y1="404" x2="176" y2="424"/>
    <line x1="216" y1="404" x2="216" y2="424"/>
    <line x1="256" y1="404" x2="256" y2="424"/>
    <line x1="296" y1="404" x2="296" y2="424"/>
    <line x1="336" y1="404" x2="336" y2="424"/>
    <line x1="376" y1="404" x2="376" y2="424"/>
  </g>

  <g stroke="#9FC7F5" stroke-width="2" stroke-linecap="round" opacity="0.75">
    <line x1="156" y1="410" x2="156" y2="422"/>
    <line x1="196" y1="410" x2="196" y2="422"/>
    <line x1="236" y1="410" x2="236" y2="422"/>
    <line x1="276" y1="410" x2="276" y2="422"/>
    <line x1="316" y1="410" x2="316" y2="422"/>
    <line x1="356" y1="410" x2="356" y2="422"/>
  </g>

  <g fill="#D9ECFF" font-family="Arial, Helvetica, sans-serif" font-size="16" font-weight="700" text-anchor="middle">
    <text x="136" y="442">0</text>
    <text x="216" y="442">5</text>
    <text x="296" y="442">10</text>
    <text x="376" y="442">15</text>
  </g>
  <text x="256" y="468" fill="#7FD9CF" font-family="Arial, Helvetica, sans-serif" font-size="13" font-weight="700" text-anchor="middle" letter-spacing="2">MM</text>

  <path d="M392 148 C430 188 430 252 392 292" stroke="#2EC4B6" stroke-opacity="0.55" stroke-width="4" stroke-linecap="round" fill="none" filter="url(#soft)"/>
  <circle cx="392" cy="220" r="10" fill="#2EC4B6" opacity="0.85"/>
</svg>
