<svg xmlns="http://www.w3.org/2000/svg" viewBox="0 0 512 512" fill="none">
  <defs>
    <linearGradient id="bg" x1="80" y1="40" x2="432" y2="472" gradientUnits="userSpaceOnUse">
      <stop offset="0%" stop-color="#1B3F72"/>
      <stop offset="100%" stop-color="#0D2240"/>
    </linearGradient>
    <linearGradient id="paper" x1="156" y1="96" x2="356" y2="280" gradientUnits="userSpaceOnUse">
      <stop offset="0%" stop-color="#FFFFFF"/>
      <stop offset="100%" stop-color="#E8EEF5"/>
    </linearGradient>
    <linearGradient id="fade" x1="256" y1="220" x2="256" y2="420" gradientUnits="userSpaceOnUse">
      <stop offset="0%" stop-color="#FFFFFF" stop-opacity="1"/>
      <stop offset="35%" stop-color="#E8EEF5" stop-opacity="0.85"/>
      <stop offset="100%" stop-color="#E8EEF5" stop-opacity="0"/>
    </linearGradient>
    <filter id="shadow" x="-20%" y="-10%" width="140%" height="130%">
      <feDropShadow dx="0" dy="8" stdDeviation="10" flood-color="#061428" flood-opacity="0.45"/>
    </filter>
  </defs>

  <rect width="512" height="512" rx="112" fill="url(#bg)"/>

  <g filter="url(#shadow)">
    <!-- Paper document -->
    <rect x="128" y="88" width="256" height="336" rx="18" fill="url(#paper)"/>
    <path d="M330 88h34a18 18 0 0 1 18 18v34l-52-52z" fill="#D5DEEA"/>
    <path d="M330 88l52 52h-34a18 18 0 0 1-18-18V88z" fill="#C5D0DE"/>

    <!-- Document lines (analog) -->
    <rect x="160" y="132" width="152" height="10" rx="5" fill="#B8C6D8" opacity="0.9"/>
    <rect x="160" y="156" width="192" height="8" rx="4" fill="#C9D4E3" opacity="0.85"/>
    <rect x="160" y="176" width="176" height="8" rx="4" fill="#C9D4E3" opacity="0.8"/>
    <rect x="160" y="196" width="184" height="8" rx="4" fill="#C9D4E3" opacity="0.75"/>
    <rect x="160" y="216" width="160" height="8" rx="4" fill="#C9D4E3" opacity="0.7"/>

    <!-- Fade overlay at transition -->
    <rect x="128" y="248" width="256" height="120" fill="url(#fade)"/>
  </g>

  <!-- Digital pixels -->
  <g>
    <rect x="152" y="268" width="24" height="24" rx="4" fill="#3A8DFF" opacity="0.95"/>
    <rect x="180" y="268" width="24" height="24" rx="4" fill="#2EC4B6" opacity="0.9"/>
    <rect x="208" y="268" width="24" height="24" rx="4" fill="#7B57E8" opacity="0.88"/>
    <rect x="236" y="268" width="24" height="24" rx="4" fill="#45D0FF" opacity="0.92"/>
    <rect x="264" y="268" width="24" height="24" rx="4" fill="#3A8DFF" opacity="0.75"/>
    <rect x="292" y="268" width="24" height="24" rx="4" fill="#2EC4B6" opacity="0.7"/>
    <rect x="320" y="268" width="24" height="24" rx="4" fill="#9B7BFF" opacity="0.65"/>

    <rect x="164" y="296" width="24" height="24" rx="4" fill="#9B7BFF" opacity="0.85"/>
    <rect x="192" y="296" width="24" height="24" rx="4" fill="#3A8DFF" opacity="0.8"/>
    <rect x="220" y="296" width="24" height="24" rx="4" fill="#2EC4B6" opacity="0.95"/>
    <rect x="248" y="296" width="24" height="24" rx="4" fill="#45D0FF" opacity="0.88"/>
    <rect x="276" y="296" width="24" height="24" rx="4" fill="#7B57E8" opacity="0.82"/>
    <rect x="304" y="296" width="24" height="24" rx="4" fill="#3A8DFF" opacity="0.78"/>

    <rect x="148" y="324" width="24" height="24" rx="4" fill="#2EC4B6" opacity="0.72"/>
    <rect x="176" y="324" width="24" height="24" rx="4" fill="#45D0FF" opacity="0.9"/>
    <rect x="204" y="324" width="24" height="24" rx="4" fill="#7B57E8" opacity="0.86"/>
    <rect x="232" y="324" width="24" height="24" rx="4" fill="#3A8DFF" opacity="0.92"/>
    <rect x="260" y="324" width="24" height="24" rx="4" fill="#9B7BFF" opacity="0.8"/>
    <rect x="288" y="324" width="24" height="24" rx="4" fill="#2EC4B6" opacity="0.76"/>
    <rect x="316" y="324" width="24" height="24" rx="4" fill="#45D0FF" opacity="0.68"/>

    <rect x="172" y="352" width="24" height="24" rx="4" fill="#3A8DFF" opacity="0.65"/>
    <rect x="200" y="352" width="24" height="24" rx="4" fill="#9B7BFF" opacity="0.88"/>
    <rect x="228" y="352" width="24" height="24" rx="4" fill="#2EC4B6" opacity="0.82"/>
    <rect x="256" y="352" width="24" height="24" rx="4" fill="#45D0FF" opacity="0.75"/>
    <rect x="284" y="352" width="24" height="24" rx="4" fill="#7B57E8" opacity="0.7"/>

    <rect x="188" y="380" width="24" height="24" rx="4" fill="#2EC4B6" opacity="0.58"/>
    <rect x="216" y="380" width="24" height="24" rx="4" fill="#3A8DFF" opacity="0.62"/>
    <rect x="244" y="380" width="24" height="24" rx="4" fill="#45D0FF" opacity="0.55"/>
    <rect x="272" y="380" width="24" height="24" rx="4" fill="#9B7BFF" opacity="0.5"/>
  </g>

  <!-- Spark accents -->
  <circle cx="118" cy="360" r="6" fill="#45D0FF" opacity="0.55"/>
  <circle cx="394" cy="300" r="5" fill="#2EC4B6" opacity="0.5"/>
  <circle cx="106" cy="260" r="4" fill="#9B7BFF" opacity="0.45"/>
</svg>
