<svg xmlns="http://www.w3.org/2000/svg" viewBox="0 0 220 48" fill="none">
  <defs>
    <linearGradient id="np" x1="8" y1="4" x2="40" y2="44" gradientUnits="userSpaceOnUse">
      <stop offset="0%" stop-color="#FFFFFF"/>
      <stop offset="100%" stop-color="#E8EEF5"/>
    </linearGradient>
    <linearGradient id="nf" x1="20" y1="24" x2="20" y2="42" gradientUnits="userSpaceOnUse">
      <stop offset="0%" stop-color="#FFFFFF" stop-opacity="1"/>
      <stop offset="100%" stop-color="#FFFFFF" stop-opacity="0"/>
    </linearGradient>
  </defs>

  <!-- Mini document + pixels -->
  <rect x="4" y="4" width="32" height="40" rx="6" fill="url(#np)" opacity="0.98"/>
  <path d="M28 4h8v8l-8-8z" fill="#D5DEEA"/>
  <rect x="10" y="12" width="18" height="3" rx="1.5" fill="#B8C6D8"/>
  <rect x="10" y="18" width="22" height="2.5" rx="1.25" fill="#C9D4E3"/>
  <rect x="10" y="23" width="20" height="2.5" rx="1.25" fill="#C9D4E3" opacity="0.85"/>
  <rect x="4" y="26" width="32" height="10" fill="url(#nf)"/>

  <rect x="9" y="30" width="5" height="5" rx="1" fill="#3A8DFF"/>
  <rect x="16" y="30" width="5" height="5" rx="1" fill="#2EC4B6"/>
  <rect x="23" y="30" width="5" height="5" rx="1" fill="#7B57E8"/>
  <rect x="30" y="30" width="5" height="5" rx="1" fill="#45D0FF"/>
  <rect x="12" y="37" width="5" height="5" rx="1" fill="#9B7BFF"/>
  <rect x="19" y="37" width="5" height="5" rx="1" fill="#3A8DFF" opacity="0.85"/>
  <rect x="26" y="37" width="5" height="5" rx="1" fill="#2EC4B6" opacity="0.8"/>

  <!-- Brand text -->
  <text x="50" y="31" fill="#FFFFFF" font-family="Arial, Helvetica, sans-serif" font-size="22" font-weight="700" letter-spacing="-0.5">0@B0</text>
  <text x="128" y="31" fill="#A8D4F8" font-family="Arial, Helvetica, sans-serif" font-size="22" font-weight="700" letter-spacing="-0.5">-</text>
</svg>
