<svg xmlns="http://www.w3.org/2000/svg" viewBox="0 0 200 120" width="200" height="120">
  <style>
    line, polyline, path { stroke:#2c3e50; stroke-width:1.5; fill:none; }
    .weld { fill:#a0c4e8; stroke:#2c3e50; stroke-width:1; }
    .dim { stroke:#888; stroke-width:0.8; stroke-dasharray:3,2; fill:none; }
    text { font-family:Arial,sans-serif; font-size:9px; fill:#333; }
    .label { font-size:8px; fill:#555; }
  </style>

  <polyline points="10,42 86,42 86,90 10,90" />
  <polyline points="114,42 190,42 190,90 114,90" />
  <line x1="86" y1="42" x2="100" y2="58" />
  <line x1="114" y1="42" x2="100" y2="58" />
  <polygon class="weld" points="86,42 114,42 116,34 84,34" />
  <polygon class="weld" points="96,58 104,58 100,64" />
  <line class="dim" x1="84" y1="34" x2="84" y2="22" />
  <line class="dim" x1="116" y1="34" x2="116" y2="22" />
  <line class="dim" x1="84" y1="26" x2="116" y2="26" />
  <text x="100" y="20" text-anchor="middle">e</text>
  <line class="dim" x1="118" y1="42" x2="128" y2="42" />
  <line class="dim" x1="118" y1="34" x2="128" y2="34" />
  <line class="dim" x1="124" y1="34" x2="124" y2="42" />
  <text x="132" y="40">g</text>

  <text x="100" y="106" text-anchor="middle" font-weight="bold">&#1057;-22-1 (V-&#1086;&#1073;&#1088;&#1072;&#1079;&#1085;&#1072;&#1103;)</text>
  <text x="100" y="116" text-anchor="middle" class="label">&#1058;&#1072;&#1073;&#1083;. 9.29, &#1089;&#1087;&#1086;&#1089;&#1086;&#1073;&#1099; 40, 52, 53</text>
</svg>
