<svg xmlns="http://www.w3.org/2000/svg" viewBox="0 0 200 120" width="200" height="120">
  <style>
    line, polyline, path { stroke:#2c3e50; stroke-width:1.5; fill:none; }
    .weld { fill:#a0c4e8; stroke:#2c3e50; stroke-width:1; }
    .dim { stroke:#888; stroke-width:0.8; stroke-dasharray:3,2; fill:none; }
    text { font-family:Arial,sans-serif; font-size:9px; fill:#333; }
    .label { font-size:8px; fill:#555; }
  </style>

  <!-- 5B0;L 1 -->
  <polyline points="10,42 86,42 86,90 10,90" />
  <!-- 5B0;L 2 -->
  <polyline points="114,42 190,42 190,90 114,90" />
  <!-- V->1@07=0O @0745;:0 45Ḟ -->
  <line x1="86" y1="42" x2="100" y2="58" />
  <line x1="114" y1="42" x2="100" y2="58" />
  <!-- (>2 A CA8;5=85< -->
  <polygon class="weld" points="86,42 114,42 116,34 84,34" />
  <!-- >@5=L H20 -->
  <polygon class="weld" points="96,58 104,58 100,64" />
  <!--  07<5@ e -->
  <line class="dim" x1="84" y1="34" x2="84" y2="22" />
  <line class="dim" x1="116" y1="34" x2="116" y2="22" />
  <line class="dim" x1="84" y1="26" x2="116" y2="26" />
  <text x="100" y="20" text-anchor="middle">e</text>
  <!--  07<5@ g -->
  <line class="dim" x1="118" y1="42" x2="128" y2="42" />
  <line class="dim" x1="118" y1="34" x2="128" y2="34" />
  <line class="dim" x1="124" y1="34" x2="124" y2="42" />
  <text x="132" y="40">g</text>

  <text x="100" y="106" text-anchor="middle" font-weight="bold">!-22-1 (V->1@07=0O)</text>
  <text x="100" y="116" text-anchor="middle" class="label">"01;. 9.29, A?>A>1K 40, 52, 53</text>
</svg>
